<?xml version="1.0" standalone="no"?>
<!DOCTYPE svg PUBLIC "-//W3C//DTD SVG 20010904//EN"
 "http://www.w3.org/TR/2001/REC-SVG-20010904/DTD/svg10.dtd">
<svg version="1.0" xmlns="http://www.w3.org/2000/svg"
 width="50.000000pt" height="84.000000pt" viewBox="0 0 50.000000 84.000000"
 preserveAspectRatio="xMidYMid meet">

<g transform="translate(0.000000,84.000000) scale(0.100000,-0.100000)"
fill="#000000" stroke="none">
<path d="M339 824 c-14 -17 -11 -30 37 -164 52 -146 43 -372 -22 -518 -27 -62
-28 -89 -1 -106 28 -18 49 4 79 80 74 192 78 394 12 596 -37 112 -73 151 -105
112z"/>
<path d="M34 646 c-7 -17 -5 -27 20 -116 21 -74 20 -135 -5 -215 -27 -87 -23
-110 16 -110 27 0 32 6 55 60 21 51 24 76 24 165 0 89 -3 114 -24 165 -21 51
-29 60 -53 63 -18 2 -29 -2 -33 -12z"/>
</g>
</svg>
