<svg width="118" height="27" viewBox="0 0 118 27" fill="none" xmlns="http://www.w3.org/2000/svg">
<path d="M8.61197 18.9635V20.7115C7.31635 20.7115 6.30154 20.5989 5.56718 20.3736C4.83282 20.1484 4.27723 19.8804 3.8989 19.5693C3.52132 19.2587 3.28888 18.9442 3.20233 18.6256C3.11616 18.307 3.07307 18.0624 3.07307 17.8912V17.4717V10.0135H1V8.35888H3.07307V5.25891H5.82608V8.35888H8.61197V10.0135H5.82608V17.2854V17.4951C5.82608 17.635 5.85329 17.7865 5.90696 17.9498C5.96101 18.1127 6.08573 18.2722 6.28 18.4275C6.47427 18.5829 6.74941 18.711 7.10545 18.8119C7.46186 18.9128 7.93203 18.9635 8.51483 18.9635H8.61197ZM16.4182 8.35888C17.7138 8.35888 18.7286 8.4715 19.4626 8.69676C20.197 8.92202 20.7477 9.18999 21.1143 9.50105C21.4816 9.81173 21.7084 10.1262 21.7946 10.4448C21.8811 10.7634 21.9242 11.0079 21.9242 11.1792V11.7616V11.785V12.2979C21.9242 12.5617 21.8539 12.8573 21.7137 13.1834C21.5735 13.5096 21.2443 13.8592 20.7257 14.2323C20.4884 14.4186 20.2181 14.5584 19.9162 14.6518C19.6138 14.7451 19.3439 14.8151 19.1062 14.8615C18.8258 14.9235 18.5344 14.9545 18.2316 14.9545H15.7704C15.2088 14.9545 14.7121 15.1023 14.2801 15.3975C13.8485 15.6927 13.6327 16.0578 13.6327 16.4928V17.5416C13.6327 17.9147 13.7298 18.2098 13.9241 18.4275C14.0103 18.5364 14.1074 18.6294 14.2155 18.7072C14.3232 18.7847 14.485 18.8546 14.7015 18.917C14.8739 18.979 15.0954 19.0334 15.3652 19.0799C15.6355 19.1267 15.9862 19.1498 16.4182 19.1498C16.9795 19.1498 17.4224 19.1071 17.746 19.0217C18.0699 18.9363 18.297 18.8626 18.4263 18.8002C18.7071 18.6449 18.9014 18.4585 19.0091 18.2408C19.1175 18.0235 19.1708 17.7903 19.1708 17.5416H21.9242V18.101C21.9242 18.5205 21.8003 18.909 21.5519 19.2666C21.3036 19.6238 20.92 19.9344 20.4022 20.1986C20.0348 20.3853 19.5276 20.5482 18.8798 20.6881C18.2316 20.8279 17.4115 20.8978 16.4182 20.8978C15.6838 20.8978 15.0466 20.8551 14.5073 20.7697C13.9672 20.6843 13.4974 20.5754 13.0979 20.4435C12.6988 20.3113 12.3692 20.1601 12.1099 19.9889C11.851 19.818 11.6348 19.6472 11.4621 19.4764C11.0736 19.0723 10.8903 18.6063 10.9118 18.0779V17.5416V16.4928V11.785V11.7616V11.1792C10.9118 10.9924 10.9549 10.7441 11.0411 10.4331C11.1276 10.1224 11.354 9.81173 11.721 9.50105C12.0884 9.18999 12.6394 8.92202 13.373 8.69676C14.1074 8.4715 15.1222 8.35888 16.4182 8.35888ZM19.1708 11.7616V11.5518C19.1708 11.412 19.144 11.2604 19.09 11.0975C19.0367 10.9342 18.9119 10.7789 18.7177 10.6311C18.5234 10.4837 18.2479 10.3594 17.8918 10.2585C17.5354 10.1576 17.0656 10.1069 16.4825 10.1069C15.8781 10.1069 15.3868 10.1576 15.0088 10.2585C14.6312 10.3594 14.3395 10.4799 14.1342 10.6198C13.9294 10.7596 13.7945 10.9108 13.7298 11.0741C13.6644 11.2374 13.6327 11.381 13.6327 11.5053V11.7616V11.785V11.9713V13.9291C13.6758 13.7893 13.7729 13.6767 13.9241 13.5913C14.0749 13.5058 14.2476 13.4397 14.4419 13.3932C14.6362 13.3467 14.8308 13.3153 15.0251 13.2999C15.2193 13.2844 15.3705 13.2768 15.479 13.2768H17.3253C17.8215 13.2768 18.2532 13.1483 18.6205 12.892C18.9875 12.6358 19.1708 12.3289 19.1708 11.9713V11.785V11.7616ZM32.7752 11.7385C32.7752 11.2876 32.5863 10.9033 32.2087 10.5846C31.8304 10.266 31.1017 10.1069 30.0219 10.1069C29.4818 10.1069 29.0339 10.1496 28.6779 10.235C28.3214 10.3204 28.0353 10.4331 27.8195 10.5729C27.6037 10.7128 27.4522 10.8643 27.366 11.0276C27.2794 11.1905 27.2363 11.35 27.2363 11.5053V11.9483C27.2363 12.1346 27.2847 12.2979 27.3819 12.4377C27.479 12.5776 27.5924 12.7015 27.7224 12.8104C27.852 12.9192 27.987 13.0009 28.1272 13.0553C28.2674 13.1097 28.3808 13.1524 28.467 13.1834C28.5539 13.1989 28.7697 13.2534 29.1151 13.3467C29.4602 13.4397 29.8654 13.5448 30.3295 13.6612C30.794 13.7776 31.2748 13.8981 31.771 14.0225C32.268 14.1468 32.7102 14.2557 33.0988 14.3487C33.8762 14.5509 34.4757 14.8925 34.8967 15.3741C35.3181 15.8559 35.5282 16.3919 35.5282 16.9822V18.0779C35.5282 18.3576 35.4583 18.6645 35.3181 18.9986C35.1775 19.3324 34.902 19.6392 34.4919 19.9189C34.0818 20.1986 33.5202 20.4318 32.8074 20.6181C32.0949 20.8049 31.1663 20.8978 30.0219 20.8978C28.8774 20.8978 27.9492 20.8049 27.2363 20.6181C26.5235 20.4318 25.9623 20.1986 25.5518 19.9189C25.1417 19.6392 24.8666 19.3324 24.726 18.9986C24.5858 18.6645 24.5155 18.3576 24.5155 18.0779V17.4018H27.2363C27.2363 17.9611 27.4306 18.3924 27.8195 18.6955C28.2081 18.9986 28.9424 19.1498 30.0219 19.1498C31.0801 19.1498 31.8035 19.0062 32.1924 18.7189C32.581 18.4313 32.7752 17.9925 32.7752 17.4018C32.7752 17.1066 32.6997 16.8621 32.5485 16.6678C32.3973 16.4735 32.2249 16.3144 32.0303 16.1901C31.7926 16.0502 31.5337 15.9414 31.2532 15.8635C30.605 15.6927 30.0003 15.5373 29.4387 15.3975C28.9424 15.2731 28.4617 15.153 27.9975 15.0362C27.533 14.9198 27.1933 14.8381 26.9774 14.7916C26.7616 14.7293 26.5129 14.6363 26.2321 14.5119C25.9517 14.3876 25.6814 14.2243 25.4225 14.0225C25.1633 13.8203 24.9475 13.5758 24.7744 13.2881C24.6016 13.0009 24.5155 12.6706 24.5155 12.2979V11.1792C24.5155 10.3711 24.9584 9.6991 25.8432 9.16278C26.7291 8.62685 28.1215 8.35888 30.0219 8.35888C30.9936 8.35888 31.8251 8.43257 32.5163 8.58035C33.2072 8.72775 33.7791 8.92996 34.233 9.18621C34.6862 9.44246 35.0157 9.7418 35.221 10.0835C35.4258 10.4255 35.5282 10.7906 35.5282 11.1792V11.7385H32.7752ZM39.5448 20.7115V3.814H42.2656V20.7115H39.5448ZM50.9468 8.35888C52.8472 8.35888 54.2403 8.62685 55.1255 9.16278C56.011 9.6991 56.4532 10.3711 56.4532 11.1792V12.2979V17.4018V18.0779C56.4532 18.3576 56.3833 18.6645 56.2431 18.9986C56.1025 19.3324 55.827 19.6392 55.4169 19.9189C55.0068 20.1986 54.4452 20.4318 53.7323 20.6181C53.0199 20.8049 52.0913 20.8978 50.9468 20.8978C49.8024 20.8978 48.8741 20.8049 48.1613 20.6181C47.4485 20.4318 46.8872 20.1986 46.4768 19.9189C46.0667 19.6392 45.7916 19.3324 45.651 18.9986C45.5107 18.6645 45.4404 18.3576 45.4404 18.0779V16.9822C45.4404 16.3919 45.651 15.8559 46.072 15.3741C46.493 14.8925 47.0925 14.5509 47.8699 14.3487C48.2585 14.2557 48.7014 14.1468 49.1977 14.0225C49.6947 13.8981 50.1751 13.7776 50.6392 13.6612C51.1033 13.5448 51.5085 13.4397 51.8539 13.3467C52.1997 13.2534 52.4156 13.1989 52.5017 13.1834C52.5883 13.1524 52.7013 13.1097 52.8419 13.0553C52.9821 13.0009 53.1174 12.9192 53.2471 12.8104C53.3763 12.7015 53.4897 12.5776 53.5868 12.4377C53.684 12.2979 53.7323 12.1346 53.7323 11.9483V11.5053C53.7323 11.35 53.6893 11.1905 53.6031 11.0276C53.5165 10.8643 53.3657 10.7128 53.1499 10.5729C52.9334 10.4331 52.6476 10.3204 52.2908 10.235C51.9348 10.1496 51.4869 10.1069 50.9468 10.1069C49.8674 10.1069 49.1383 10.266 48.7608 10.5846C48.3824 10.9033 48.1938 11.2876 48.1938 11.7385H45.4404V11.1792C45.4404 10.7906 45.5429 10.4255 45.7485 10.0835C45.9533 9.7418 46.2825 9.44246 46.7364 9.18621C47.1896 8.92996 47.7618 8.72775 48.4527 8.58035C49.1436 8.43257 49.9751 8.35888 50.9468 8.35888ZM53.7323 14.5354C53.6893 14.6907 53.5815 14.8071 53.4088 14.8846C53.2361 14.9625 53.0743 15.0169 52.9228 15.0479C52.5989 15.1257 52.2478 15.2149 51.8702 15.3158C51.4922 15.4171 51.1411 15.5063 50.8176 15.5838C50.429 15.6772 50.0617 15.7705 49.7162 15.8635C49.4573 15.9414 49.2086 16.0502 48.9713 16.1901C48.777 16.3144 48.5982 16.4735 48.4365 16.6678C48.2747 16.8621 48.1938 17.1066 48.1938 17.4018C48.1938 17.9925 48.3885 18.4313 48.777 18.7189C49.1655 19.0062 49.8889 19.1498 50.9468 19.1498C52.0266 19.1498 52.761 18.9986 53.1499 18.6955C53.5385 18.3924 53.7323 17.9611 53.7323 17.4018V14.5354ZM70.6733 20.7115H67.9196V11.7616V11.5518C67.9196 11.412 67.8931 11.2604 67.8387 11.0975C67.7854 10.9342 67.6607 10.7789 67.4664 10.6311C67.2721 10.4837 66.997 10.3594 66.6406 10.2585C66.2842 10.1576 65.8144 10.1069 65.2316 10.1069C64.6268 10.1069 64.1359 10.1576 63.7575 10.2585C63.38 10.3594 63.0882 10.4799 62.883 10.6198C62.6781 10.7596 62.5432 10.9108 62.4786 11.0741C62.4135 11.2374 62.3814 11.381 62.3814 11.5053V11.7616V20.7115H59.628V11.5987V11.1792C59.628 10.9924 59.6711 10.7441 59.7577 10.4331C59.8438 10.1224 60.0759 9.81173 60.4535 9.50105C60.8318 9.18999 61.3882 8.92202 62.1218 8.69676C62.8561 8.4715 63.8709 8.35888 65.1669 8.35888C66.4625 8.35888 67.4774 8.4715 68.2113 8.69676C68.9457 8.92202 69.4968 9.18999 69.8634 9.50105C70.2304 9.81173 70.4571 10.1262 70.5433 10.4448C70.6302 10.7634 70.6733 11.0079 70.6733 11.1792V11.412V20.7115ZM79.3863 8.35888C80.6823 8.35888 81.6971 8.4715 82.4307 8.69676C83.165 8.92202 83.7161 9.18999 84.0827 9.50105C84.4497 9.81173 84.6768 10.1262 84.763 10.4448C84.8496 10.7634 84.8927 11.0079 84.8927 11.1792V11.7616V11.785V12.2979C84.8927 12.5617 84.8224 12.8573 84.6821 13.1834C84.5419 13.5096 84.2123 13.8592 83.6938 14.2323C83.4564 14.4186 83.1866 14.5584 82.8846 14.6518C82.5818 14.7451 82.312 14.8151 82.0746 14.8615C81.7942 14.9235 81.5024 14.9545 81.2001 14.9545H78.7385C78.1772 14.9545 77.6802 15.1023 77.2486 15.3975C76.8166 15.6927 76.6008 16.0578 76.6008 16.4928V17.5416C76.6008 17.9147 76.6979 18.2098 76.8922 18.4275C76.9783 18.5364 77.0755 18.6294 77.1839 18.7072C77.2917 18.7847 77.4534 18.8546 77.6696 18.917C77.8419 18.979 78.0638 19.0334 78.3337 19.0799C78.6035 19.1267 78.9547 19.1498 79.3863 19.1498C79.9479 19.1498 80.3905 19.1071 80.714 19.0217C81.0383 18.9363 81.2651 18.8626 81.3943 18.8002C81.6755 18.6449 81.8698 18.4585 81.9775 18.2408C82.0856 18.0235 82.1393 17.7903 82.1393 17.5416H84.8927V18.101C84.8927 18.5205 84.7687 18.909 84.5204 19.2666C84.2717 19.6238 83.8884 19.9344 83.3703 20.1986C83.0033 20.3853 82.4957 20.5482 81.8482 20.6881C81.2001 20.8279 80.3795 20.8978 79.3863 20.8978C78.6519 20.8978 78.0147 20.8551 77.4753 20.7697C76.9352 20.6843 76.4658 20.5754 76.066 20.4435C75.6668 20.3113 75.3376 20.1601 75.078 19.9889C74.8191 19.818 74.6033 19.6472 74.4305 19.4764C74.0416 19.0723 73.8583 18.6063 73.8799 18.0779V17.5416V16.4928V11.785V11.7616V11.1792C73.8799 10.9924 73.923 10.7441 74.0091 10.4331C74.0957 10.1224 74.3221 9.81173 74.6895 9.50105C75.0564 9.18999 75.6075 8.92202 76.3415 8.69676C77.0755 8.4715 78.0903 8.35888 79.3863 8.35888ZM82.1393 11.7616V11.5518C82.1393 11.412 82.1124 11.2604 82.0584 11.0975C82.0047 10.9342 81.8804 10.7789 81.6857 10.6311C81.4915 10.4837 81.2163 10.3594 80.8603 10.2585C80.5035 10.1576 80.0341 10.1069 79.4509 10.1069C78.8462 10.1069 78.3552 10.1576 77.9769 10.2585C77.5993 10.3594 77.3079 10.4799 77.1023 10.6198C76.8974 10.7596 76.7625 10.9108 76.6979 11.0741C76.6329 11.2374 76.6008 11.381 76.6008 11.5053V11.7616V11.785V11.9713V13.9291C76.6438 13.7893 76.741 13.6767 76.8922 13.5913C77.043 13.5058 77.2161 13.4397 77.4103 13.3932C77.6046 13.3467 77.7989 13.3153 77.9931 13.2999C78.1878 13.2844 78.339 13.2768 78.4471 13.2768H80.2934C80.7896 13.2768 81.2216 13.1483 81.5886 12.892C81.956 12.6358 82.1393 12.3289 82.1393 11.9713V11.785V11.7616ZM94.6427 18.9635V20.7115C93.3467 20.7115 92.3319 20.5989 91.5975 20.3736C90.8632 20.1484 90.3076 19.8804 89.9293 19.5693C89.5517 19.2587 89.3196 18.9442 89.2331 18.6256C89.1469 18.307 89.1038 18.0624 89.1038 17.8912V17.4717V10.0135H87.0304V8.35888H89.1038V5.25891H91.8564V8.35888H94.6427V10.0135H91.8564V17.2854V17.4951C91.8564 17.635 91.884 17.7865 91.9373 17.9498C91.9917 18.1127 92.1161 18.2722 92.3104 18.4275C92.5046 18.5829 92.7802 18.711 93.1362 18.8119C93.4922 18.9128 93.9624 18.9635 94.5456 18.9635H94.6427Z" fill="#ED3237" stroke="#ED3237" stroke-width="0.288" stroke-miterlimit="22.9256"/>
<path fill-rule="evenodd" clip-rule="evenodd" d="M115.118 13.0825C115.118 16.7343 114.333 20.4174 112.805 23.5541C112.566 24.0447 112.268 24.5009 112.496 25.1797C112.894 26.3619 114.421 26.4605 114.983 25.4038C116.774 22.0393 117.845 17.3262 117.845 13.4631V12.6698C117.845 10.2551 117.372 7.39698 116.72 5.24832C116.311 3.8979 115.582 1.93065 114.904 0.717041C114.327 -0.315148 112.829 -0.2354 112.423 0.972159C112.187 1.67137 112.524 2.12114 112.762 2.62231C114.287 5.83717 115.118 9.31396 115.118 13.0825Z" fill="#ED3237"/>
<mask id="mask0_1_3" style="mask-type:luminance" maskUnits="userSpaceOnUse" x="107" y="2" width="6" height="22">
<path d="M107.53 4.16548C107.53 4.77436 107.965 5.37304 108.175 5.89764C108.952 7.83049 109.416 9.40013 109.584 11.6214C109.838 14.9897 109.265 17.8606 108.044 20.668C107.926 20.939 107.767 21.2051 107.669 21.4787C107.4 22.232 107.803 22.8874 108.197 23.1686C108.768 23.5764 109.499 23.4063 109.907 23.0102C110.191 22.7351 110.504 21.9319 110.72 21.4561C111.648 19.4189 112.375 16.1413 112.375 13.5901V12.7333C112.375 10.353 111.831 7.84674 111.113 5.8194C110.861 5.10772 110.191 3.4247 109.783 3.09475C108.737 2.24851 107.53 3.09852 107.53 4.16548Z" fill="white"/>
</mask>
<g mask="url(#mask0_1_3)">
<path fill-rule="evenodd" clip-rule="evenodd" d="M107.53 2.75006H112.375V23.4033H107.53V2.75006Z" fill="#FEFEFE"/>
</g>
<path fill-rule="evenodd" clip-rule="evenodd" d="M106.876 12.2004C106.775 10.6787 106.484 9.17714 105.991 7.88001C105.775 7.31119 105.493 6.57305 105.189 6.1229C104.861 5.63837 104.055 5.37985 103.388 5.80164C102.932 6.0904 102.536 6.80096 102.859 7.59201C103.161 8.33242 103.332 8.51497 103.607 9.4383C104.488 12.3924 104.356 15.4364 103.073 18.2284C102.938 18.5243 102.76 18.7858 102.743 19.1759C102.726 19.5682 102.865 19.931 103.04 20.1574C103.595 20.8725 104.793 21.0256 105.398 19.787C105.535 19.5055 105.665 19.2107 105.792 18.9004C106.633 16.8469 107.027 14.4878 106.876 12.2004Z" fill="#ED3237"/>
</svg>